<svg width="102" height="31" viewBox="0 0 70 22" fill="none" xmlns="http://www.w3.org/2000/svg">
            <path fill-rule="evenodd" clip-rule="evenodd" d="M0 0.0964827C0 0.0431968 0.0393759 0 0.0879486 0H6.91205C6.96062 0 7 0.0431968 7 0.0964827V1.29734C7 1.35063 6.96062 1.39383 6.91205 1.39383H1.25339V9.90352C1.25339 9.9568 1.21401 10 1.16544 10H0.0879486C0.0393759 10 0 9.9568 0 9.90352V0.0964827ZM0.175897 0.192965V9.80703H1.07749V1.29734C1.07749 1.24406 1.11687 1.20086 1.16544 1.20086H6.8241V0.192965H0.175897Z" fill="#005E59"></path>
            <path fill-rule="evenodd" clip-rule="evenodd" d="M10.4219 1.13514H9V0H10.4219C16.8163 0 22 4.82807 22 10.7838V21L20.7813 19.8649V10.7838C20.7813 5.45498 16.1432 1.13514 10.4219 1.13514Z" fill="#00866D"></path>
            <path fill-rule="evenodd" clip-rule="evenodd" d="M9 0.0956021C9 0.0428025 9.04347 0 9.09708 0H10.4977C16.85 0 22 5.05656 22 11.2947V21.9044C22 21.943 21.9764 21.9779 21.9401 21.9927C21.9039 22.0075 21.8622 21.9994 21.8344 21.9721L20.6338 20.7932C20.6156 20.7753 20.6053 20.7509 20.6053 20.7255V11.2947C20.6053 5.81374 16.0802 1.37006 10.4977 1.37006H9.09708C9.04347 1.37006 9 1.32726 9 1.27446V0.0956021ZM9.19417 0.191204V1.17885H10.4977C16.1869 1.17885 20.7995 5.70762 20.7995 11.2947V20.6859L21.8058 21.6741V11.2947C21.8058 5.16267 16.7433 0.191204 10.4977 0.191204H9.19417Z" fill="#00866D"></path>
            <path fill-rule="evenodd" clip-rule="evenodd" d="M10.9239 22C5.32009 22 0.580586 17.6141 0 12H1.19624C1.71522 17.0184 5.91468 20.8307 10.9239 20.8307H17.8391L19 22H10.9239Z" fill="#00866D"></path>
            <path fill-rule="evenodd" clip-rule="evenodd" d="M0.0240903 12.0307C0.0418413 12.0112 0.067106 12 0.0936134 12H1.27806C1.32603 12 1.36623 12.036 1.37118 12.0834C1.88014 16.9615 5.99834 20.6664 10.9098 20.6664H17.7569C17.7818 20.6664 17.8057 20.6763 17.8233 20.6938L18.9727 21.8414C18.9994 21.868 19.0073 21.908 18.9928 21.9427C18.9783 21.9774 18.9442 22 18.9064 22H10.9098C5.31198 22 0.58017 17.6583 0.000499306 12.1026C-0.00223368 12.0764 0.00633929 12.0503 0.0240903 12.0307ZM0.197927 12.186C0.815156 17.6004 5.44505 21.814 10.9098 21.814H18.6812L17.718 20.8524H10.9098C5.92972 20.8524 1.75077 17.1169 1.19401 12.186H0.197927Z" fill="#00866D"></path>
            <path fill-rule="evenodd" clip-rule="evenodd" d="M3 3H11V4.125H4.17073V6H3V3Z" fill="#00866D"></path>
            <path fill-rule="evenodd" clip-rule="evenodd" d="M3 3.08483C3 3.03798 3.04213 3 3.09409 3H10.9059C10.9579 3 11 3.03798 11 3.08483V4.14621C11 4.19306 10.9579 4.23104 10.9059 4.23104H4.33138V5.91517C4.33138 5.96202 4.28925 6 4.23728 6H3.09409C3.04213 6 3 5.96202 3 5.91517V3.08483ZM3.18818 3.16966V5.83034H4.14319V4.14621C4.14319 4.09936 4.18532 4.06138 4.23728 4.06138H10.8118V3.16966H3.18818Z" fill="#00866D"></path>
            <path fill-rule="evenodd" clip-rule="evenodd" d="M17.574 10.3262C17.574 6.99446 14.715 4.15429 11.1883 4.15429H10.8214V3H11.1883C15.3763 3 18.7713 6.36975 18.7713 10.3262V16.5017L20.3919 18.0328L21 18.6348V20L20.4173 19.5212L15.7296 15.2278H10.9888C8.23356 15.2278 6 13.1177 6 10.5148V5.99022H10.5897C13.3449 5.99022 15.5785 8.10033 15.5785 10.7033V13.4854L17.574 15.3706V10.3262ZM14.3812 12.3542V10.7033C14.3812 8.72504 12.6837 7.12136 10.5897 7.12136H7.19731V10.5148C7.19731 12.493 8.89481 14.0967 10.9888 14.0967H14.5323L10.5897 10.3034H12.2103L14.3812 12.3542Z" fill="#005E59"></path>
            <path fill-rule="evenodd" clip-rule="evenodd" d="M10.7598 3.09142C10.7598 3.04093 10.8027 3 10.8557 3H11.2179C15.4074 3 18.7998 6.37648 18.7998 10.3389V16.4099L20.373 17.8991L20.9732 18.4947C20.9904 18.5117 21 18.5344 21 18.558V19.9086C21 19.9443 20.9781 19.9768 20.944 19.9917C20.9099 20.0066 20.8699 20.0011 20.8415 19.9778L20.2623 19.5009L15.6625 15.2791H11.0209C8.24859 15.2791 6 13.1514 6 10.5254V6.04948C6 5.99899 6.04292 5.95806 6.09587 5.95806H10.6269C13.3992 5.95806 15.6478 8.08578 15.6478 10.7118V13.426L17.426 15.1094V10.3389C17.426 7.09132 14.6444 4.32472 11.2179 4.32472H10.8557C10.8027 4.32472 10.7598 4.28379 10.7598 4.2333V3.09142ZM10.9515 3.18284V4.14188H11.2179C14.7546 4.14188 17.6178 6.99452 17.6178 10.3389V15.329C17.6178 15.3659 17.5945 15.3992 17.5588 15.4134C17.523 15.4275 17.4818 15.4198 17.4544 15.3938L15.4844 13.5289C15.4662 13.5117 15.456 13.4884 15.456 13.464V10.7118C15.456 8.18801 13.2946 6.1409 10.6269 6.1409H6.19174V10.5254C6.19174 13.0492 8.35317 15.0963 11.0209 15.0963H15.7011C15.7259 15.0963 15.7497 15.1055 15.7676 15.1219L20.3935 19.3673L20.8083 19.7089V18.5948L20.2355 18.0266L18.6364 16.5128C18.6182 16.4956 18.6081 16.4723 18.6081 16.4479V10.3389C18.6081 6.47337 15.2972 3.18284 11.2179 3.18284H10.9515ZM7.182 7.16845C7.182 7.11796 7.22493 7.07703 7.27787 7.07703H10.6269C12.7464 7.07703 14.4658 8.70377 14.4658 10.7118V12.345C14.4658 12.382 14.4425 12.4153 14.4068 12.4294C14.371 12.4436 14.3298 12.4359 14.3024 12.4099L12.1873 10.4077H10.8566L14.5873 14.0045C14.6145 14.0307 14.6225 14.0699 14.6076 14.104C14.5927 14.138 14.5578 14.1602 14.5191 14.1602H11.0209C8.90139 14.1602 7.182 12.5334 7.182 10.5254V7.16845ZM7.37374 7.25987V10.5254C7.37374 12.4312 9.00597 13.9773 11.0209 13.9773H14.2894L10.5587 10.3805C10.5315 10.3543 10.5235 10.3151 10.5384 10.281C10.5533 10.247 10.5882 10.2248 10.6269 10.2248H12.2268C12.2521 10.2248 12.2764 10.2344 12.2943 10.2514L14.274 12.1255V10.7118C14.274 8.806 12.6418 7.25987 10.6269 7.25987H7.37374Z" fill="#005E59"></path>
            <path fill-rule="evenodd" clip-rule="evenodd" d="M3 11.2V8H4.16418V11.2C4.16418 14.8451 7.03089 17.8 10.5672 17.8H14.8358L16 19H10.5672C6.38793 19 3 15.5078 3 11.2Z" fill="#005E59"></path>
            <path fill-rule="evenodd" clip-rule="evenodd" d="M3 8.09542C3 8.04272 3.04224 8 3.09435 8H4.24163C4.29374 8 4.33598 8.04272 4.33598 8.09542V11.2399C4.33598 14.7705 7.12027 17.63 10.5517 17.63H14.7584C14.7837 17.63 14.8079 17.6403 14.8256 17.6585L15.9729 18.8377C15.9996 18.8651 16.0074 18.906 15.9927 18.9415C15.978 18.9769 15.9437 19 15.9056 19H10.5517C6.37957 19 3 15.5242 3 11.2399V8.09542ZM3.1887 8.19083V11.2399C3.1887 15.4218 6.48665 18.8092 10.5517 18.8092H15.6804L14.7188 17.8208H10.5517C7.01319 17.8208 4.14728 14.873 4.14728 11.2399V8.19083H3.1887Z" fill="#005E59"></path>
            <path fill-rule="evenodd" clip-rule="evenodd" d="M0 0H7V1.22449H1.10526V10H0V0Z" fill="#005E59"></path>
            <path d="M31.3446 3H29V16.076C29 17.6909 30.3843 19 32.0918 19H37V16.6686H33.277C32.4233 16.6686 31.7311 16.014 31.7311 15.2066V3.3655C31.7311 3.16364 31.5581 3 31.3446 3Z" fill="#0D0D0D"></path>
            <path fill-rule="evenodd" clip-rule="evenodd" d="M40.7364 14.4469H48.9434C49.2307 12.2979 48.5659 8 43.6088 8C38.6518 8 37.8229 12.2979 38.028 14.4469C38.2332 15.9646 39.6366 19 43.6088 19C47.5811 19 48.8203 16.5824 48.9434 15.3736H46.6044C46.2351 15.8303 45.4144 16.7436 43.6088 16.7436C41.8033 16.7436 40.7364 15.3736 40.7364 14.4469ZM40.6543 12.6337H46.4403C46.2761 11.8816 45.4883 10.3773 43.6499 10.3773C41.8115 10.3773 40.8868 11.8816 40.6543 12.6337Z" fill="#0D0D0D"></path>
            <path fill-rule="evenodd" clip-rule="evenodd" d="M59.3852 9.8132C59.1381 9.20879 58.0505 8 55.6777 8C52.7117 8 50.2921 11.022 51.1897 15.1722C52.0873 19.3223 57.0827 20.1685 59.3852 17.2674V19H62V8H59.3852V9.8132ZM56.3997 16.5421C58.0055 16.5421 59.3072 15.1621 59.3072 13.4597C59.3072 11.7574 58.0055 10.3773 56.3997 10.3773C54.794 10.3773 53.4922 11.7574 53.4922 13.4597C53.4922 15.1621 54.794 16.5421 56.3997 16.5421Z" fill="#0D0D0D"></path>
            <path d="M66.7654 19H64V7.02076C64 4.80016 65.986 3 68.4359 3H70V5.35674H68.7817C67.6681 5.35674 66.7654 6.17499 66.7654 7.18436V8.30263H69.2633V10.3059H66.7654V19Z" fill="#0D0D0D"></path>
            </svg>